<svg id="svg" xmlns="http://www.w3.org/2000/svg" xmlns:xlink="http://www.w3.org/1999/xlink" width="400" height="400" viewBox="0, 0, 400,400"><g id="svgg"><path id="path0" d="M235.938 1.294 C 235.938 3.421,275.114 30.612,277.245 29.965 C 282.116 28.486,324.998 3.686,324.990 2.353 C 324.984 1.349,308.908 0.585,280.459 0.238 C 250.774 -0.124,235.938 0.228,235.938 1.294 M310.601 16.062 C 280.086 32.894,279.934 33.145,298.828 35.490 C 306.777 36.476,331.779 39.869,354.388 43.030 C 376.997 46.190,395.967 48.304,396.543 47.728 C 401.784 42.487,378.925 16.511,362.009 8.487 C 342.353 -0.836,340.827 -0.611,310.601 16.062 M205.718 14.040 C 98.749 33.365,-28.193 198.519,25.723 248.217 C 58.898 278.797,146.763 236.094,211.603 157.880 C 278.401 77.303,275.298 1.470,205.718 14.040 M287.779 38.115 C 288.230 40.039,390.839 125.000,392.713 125.000 C 397.370 125.000,402.876 60.067,398.767 53.604 C 398.058 52.490,377.172 48.890,346.838 44.655 C 318.928 40.758,294.110 37.210,291.686 36.771 C 288.473 36.188,287.413 36.552,287.779 38.115 M275.976 40.234 C 275.538 41.738,269.162 62.404,261.808 86.158 C 245.520 138.773,245.806 134.993,258.203 133.798 C 263.574 133.281,280.625 132.089,296.094 131.150 C 372.958 126.482,385.562 125.281,382.682 122.899 C 355.593 100.488,278.012 37.500,277.498 37.500 C 277.099 37.500,276.414 38.730,275.976 40.234 M309.766 135.704 C 277.754 137.915,251.563 140.220,251.563 140.826 C 251.563 142.366,351.778 203.560,354.613 203.751 C 359.041 204.049,385.733 152.462,389.904 135.547 L 390.964 131.250 379.466 131.467 C 373.143 131.586,341.777 133.493,309.766 135.704 M389.942 151.172 C 384.904 162.968,371.135 188.599,362.999 201.324 L 357.657 209.680 363.162 246.637 C 366.190 266.963,370.790 297.944,373.384 315.483 C 377.794 345.296,378.774 349.959,380.282 348.307 C 380.852 347.683,385.549 288.751,392.165 199.219 C 393.879 176.016,395.691 153.340,396.191 148.828 C 397.420 137.735,395.348 138.512,389.942 151.172 M238.802 146.493 C 238.516 147.142,219.297 165.240,196.094 186.710 C 136.815 241.560,133.247 245.087,135.527 246.564 C 139.276 248.992,276.694 292.577,277.635 291.635 C 278.363 290.908,257.932 206.629,243.583 151.172 C 242.181 145.754,240.049 143.667,238.802 146.493 M250.603 151.172 C 251.051 152.676,259.142 184.391,268.584 221.651 C 278.025 258.911,286.214 289.848,286.781 290.401 C 289.364 292.920,349.795 216.110,349.956 210.103 C 349.996 208.632,253.228 148.438,250.823 148.438 C 250.255 148.438,250.156 149.668,250.603 151.172 M347.006 225.419 C 337.956 239.281,321.341 260.891,305.398 279.537 C 294.474 292.312,290.560 297.950,291.566 299.458 C 293.679 302.626,373.815 373.438,375.286 373.438 C 377.319 373.438,368.200 304.696,355.336 223.047 C 354.137 215.436,353.384 215.651,347.006 225.419 M3.005 220.391 C 2.940 220.777,2.682 222.148,2.433 223.438 C 1.185 229.895,-0.120 307.808,1.021 307.780 C 1.748 307.763,7.100 298.971,12.913 288.244 L 23.483 268.739 14.642 245.698 C 6.889 225.492,3.421 217.948,3.005 220.391 M148.521 283.984 C 196.912 377.820,189.953 367.210,199.506 361.712 C 223.628 347.830,279.688 303.673,279.688 298.554 C 279.688 297.161,136.474 250.000,132.243 250.000 C 131.557 250.000,138.882 265.293,148.521 283.984 M73.047 261.453 C 48.340 266.755,28.165 271.797,28.213 272.656 C 28.406 276.143,79.301 392.946,80.503 392.661 C 81.730 392.371,123.230 257.665,123.371 253.516 C 123.467 250.694,122.382 250.865,73.047 261.453 M127.380 256.641 C 126.297 259.907,89.167 383.011,84.915 397.430 C 83.954 400.689,85.759 400.574,110.136 395.824 C 134.155 391.145,187.500 370.646,187.500 366.096 C 187.500 363.882,130.410 254.704,129.248 254.696 C 128.576 254.691,127.736 255.566,127.380 256.641 M21.529 328.490 L 17.428 375.781 25.623 383.657 C 37.214 394.797,75.000 404.622,75.000 396.496 C 75.000 391.669,29.405 282.458,27.063 281.677 C 26.272 281.413,23.792 302.382,21.529 328.490 M17.188 287.269 C 17.188 288.002,13.320 295.654,8.594 304.274 C -1.039 321.842,-2.209 329.761,2.303 346.875 C 6.177 361.571,14.056 375.964,14.065 368.359 C 14.066 367.285,15.471 349.531,17.188 328.906 C 20.812 285.350,20.791 285.938,18.750 285.938 C 17.891 285.938,17.188 286.537,17.188 287.269 M268.288 314.013 C 251.825 328.776,228.571 346.755,212.500 357.146 C 197.476 366.861,192.111 365.730,285.938 372.626 C 327.617 375.690,364.004 378.564,366.797 379.013 C 375.043 380.338,373.385 378.469,339.591 348.327 C 277.758 293.175,286.717 297.486,268.288 314.013 M178.906 376.093 C 172.891 379.188,161.069 384.331,152.636 387.521 C 132.242 395.236,130.214 397.398,144.531 396.156 C 159.573 394.851,233.687 389.852,287.891 386.486 C 321.954 384.371,332.813 383.212,332.813 381.692 C 332.813 380.343,330.386 379.686,325.391 379.683 C 321.309 379.681,291.953 377.573,260.156 375.000 C 188.760 369.222,192.356 369.174,178.906 376.093 " stroke="none" fill="#000000" fill-rule="evenodd"></path></g></svg>